<?xml version="1.0" standalone="no"?>
<!DOCTYPE svg PUBLIC "-//W3C//DTD SVG 20010904//EN"
 "http://www.w3.org/TR/2001/REC-SVG-20010904/DTD/svg10.dtd">
<svg version="1.0" xmlns="http://www.w3.org/2000/svg"
 width="300.000000pt" height="300.000000pt" viewBox="0 0 300.000000 300.000000"
 preserveAspectRatio="xMidYMid meet">
<metadata>
Created by potrace 1.11, written by Peter Selinger 2001-2013
</metadata>
<g transform="translate(0.000000,300.000000) scale(0.100000,-0.100000)"
fill="#000000" stroke="none">
<path d="M1450 2904 c-98 -18 -933 -230 -965 -246 -56 -28 -102 -74 -133 -133
l-27 -50 -3 -571 c-3 -625 1 -692 53 -849 117 -351 438 -669 896 -890 203 -97
262 -95 484 14 473 233 789 567 892 946 l28 100 0 625 c0 580 -1 628 -18 663
-26 57 -89 120 -144 145 -58 27 -906 238 -983 245 -30 3 -66 3 -80 1z m516
-355 l445 -112 -5 -586 c-6 -631 -6 -628 -62 -770 -96 -244 -368 -499 -725
-681 l-119 -61 -117 60 c-430 220 -695 500 -768 813 -16 64 -18 142 -19 650
l-1 577 435 109 c239 61 447 111 463 111 15 1 228 -49 473 -110z"/>
<path d="M1133 2313 l-343 -86 0 -426 c1 -472 6 -535 59 -648 91 -193 285
-372 553 -508 l96 -49 96 47 c150 75 271 161 381 271 136 137 203 256 223 396
5 36 10 257 11 491 l2 426 -353 86 c-194 48 -360 87 -368 86 -8 -1 -169 -40
-357 -86z m822 -428 c49 -48 45 -54 -246 -428 -151 -195 -282 -353 -296 -360
-20 -9 -30 -8 -51 4 -25 13 -293 368 -328 432 -8 16 -14 40 -12 54 4 35 49 68
82 59 13 -3 84 -58 157 -121 l133 -114 17 27 c26 42 430 439 464 456 41 21 52
20 80 -9z"/>
</g>
</svg>
